HIERARCHY
ROOT joint_Root
{
	OFFSET 0.0 0.0 0.0
	CHANNELS 6 Xposition Yposition Zposition Zrotation Xrotation Yrotation 
	JOINT Hips
	{
		OFFSET -0.726466 93.3139 -2.00062
		CHANNELS 6 Xposition Yposition Zposition Zrotation Xrotation Yrotation 
		JOINT Spine
		{
			OFFSET 15.7357 0.0 0.0
			CHANNELS 6 Xposition Yposition Zposition Zrotation Xrotation Yrotation 
			JOINT Chest
			{
				OFFSET 8.98455 -0.406207 0.0
				CHANNELS 6 Xposition Yposition Zposition Zrotation Xrotation Yrotation 
				JOINT Neck
				{
					OFFSET 16.3773 0.0 0.0
					CHANNELS 6 Xposition Yposition Zposition Zrotation Xrotation Yrotation 
					JOINT Head
					{
						OFFSET 6.45672 0.0 0.0
						CHANNELS 6 Xposition Yposition Zposition Zrotation Xrotation Yrotation 
						End Site
						{
							OFFSET 0.0 0.0 0.0
						}
					}
				}
				JOINT Shoulder_L
				{
					OFFSET 12.9942 -0.242716 4.98039
					CHANNELS 6 Xposition Yposition Zposition Zrotation Xrotation Yrotation 
					JOINT UpperArm_L
					{
						OFFSET 5.34809 0.0 0.0
						CHANNELS 6 Xposition Yposition Zposition Zrotation Xrotation Yrotation 
						JOINT LowerArm_L
						{
							OFFSET 24.3286 1.87007e-05 0.0
							CHANNELS 6 Xposition Yposition Zposition Zrotation Xrotation Yrotation 
							JOINT Hand_L
							{
								OFFSET 22.2916 0.0 0.0
								CHANNELS 6 Xposition Yposition Zposition Zrotation Xrotation Yrotation 
								End Site
								{
									OFFSET 0.0 0.0 0.0
								}
							}
						}
					}
				}
				JOINT Shoulder_R
				{
					OFFSET 12.9945 -0.242716 -4.98039
					CHANNELS 6 Xposition Yposition Zposition Zrotation Xrotation Yrotation 
					JOINT UpperArm_R
					{
						OFFSET -5.34813 0.0 0.0
						CHANNELS 6 Xposition Yposition Zposition Zrotation Xrotation Yrotation 
						JOINT LowerArm_R
						{
							OFFSET -24.3289 0.000322201 0.0
							CHANNELS 6 Xposition Yposition Zposition Zrotation Xrotation Yrotation 
							JOINT Hand_R
							{
								OFFSET -22.2915 -0.000108084 0.0
								CHANNELS 6 Xposition Yposition Zposition Zrotation Xrotation Yrotation 
								End Site
								{
									OFFSET 0.0 0.0 0.0
								}
							}
						}
					}
				}
			}
		}
		JOINT UpperLeg_L
		{
			OFFSET -2.19248 -6.46944 0.0
			CHANNELS 6 Xposition Yposition Zposition Zrotation Xrotation Yrotation 
			JOINT LowerLeg_L
			{
				OFFSET 39.0811 0.0 -1.23785e-05
				CHANNELS 6 Xposition Yposition Zposition Zrotation Xrotation Yrotation 
				JOINT Foot_L
				{
					OFFSET 40.9854 0.0 -1.26872e-05
					CHANNELS 6 Xposition Yposition Zposition Zrotation Xrotation Yrotation 
					JOINT Toes_L
					{
						OFFSET 11.7543 0.0 0.0
						CHANNELS 6 Xposition Yposition Zposition Zrotation Xrotation Yrotation 
						End Site
						{
							OFFSET 0.0 0.0 0.0
						}
					}
				}
			}
		}
		JOINT UpperLeg_R
		{
			OFFSET -2.19251 6.46944 0.0
			CHANNELS 6 Xposition Yposition Zposition Zrotation Xrotation Yrotation 
			JOINT LowerLeg_R
			{
				OFFSET -39.0811 -0.00228153 -0.0401928
				CHANNELS 6 Xposition Yposition Zposition Zrotation Xrotation Yrotation 
				JOINT Foot_R
				{
					OFFSET -40.9854 0.0 0.0
					CHANNELS 6 Xposition Yposition Zposition Zrotation Xrotation Yrotation 
					JOINT Toes_R
					{
						OFFSET -11.7543 0.0 0.0
						CHANNELS 6 Xposition Yposition Zposition Zrotation Xrotation Yrotation 
						End Site
						{
							OFFSET 0.0 0.0 0.0
						}
					}
				}
			}
		}
	}
}
MOTION
Frames:	7
Frame Time:	0.0333333
0.000000 0.000000 0.000000 0.000000 0.000000 -0.000000 -1.148490 92.407700 -2.567950 88.046200 -1.259530 4.217690 15.735700 0.000005 -0.000001 84.301200 85.062900 -83.740600 8.984550 -0.406207 -0.000000 2.064800 -1.007720 1.138330 16.377300 -0.000001 -0.000001 2.109690 -2.383160 -0.104154 6.456720 -0.000001 -0.000000 4.125910 -2.947530 -1.212420 12.994200 -0.242716 4.980390 -90.004700 0.014867 -72.462300 5.348090 -0.000007 -0.000001 -68.285800 37.258900 -14.966900 24.328600 0.000019 0.000005 2.440480 5.354870 -24.542900 22.291600 -0.000001 0.000005 4.122340 5.488270 -6.068410 12.994500 -0.242716 -4.980390 88.258100 5.888260 -73.488200 -5.348130 -0.000001 -0.000004 -65.133400 41.379000 -16.413900 -24.328900 0.000322 -0.000009 2.002960 6.721480 -16.644400 -22.291500 -0.000108 -0.000004 8.082160 5.430240 -3.947400 -2.192480 -6.469440 -0.000000 -175.407000 -5.985680 -3.316140 39.081100 -0.000007 -0.000012 -0.096718 0.230556 22.758200 40.985400 -0.000006 -0.000013 -0.433304 3.292480 -65.409500 11.754300 -0.000000 0.000003 -0.000024 -0.000293 -16.589000 -2.192510 6.469440 -0.000001 -179.608000 13.060900 179.692000 -39.081100 -0.002282 -0.040193 -0.016804 0.057722 19.222600 -40.985400 0.000008 0.000006 4.208290 6.443880 -65.322400 -11.754300 -0.000006 -0.000006 -0.006042 -0.071216 -19.471500
0.000000 0.000000 0.000000 0.000000 0.000000 -0.000000 -1.156720 92.415800 -2.616950 88.053600 -1.186150 4.183410 15.735700 0.000005 -0.000001 84.464200 85.036400 -83.875300 8.984550 -0.406207 -0.000000 2.120540 -0.985992 1.194930 16.377300 -0.000001 -0.000001 2.072520 -2.431570 -0.041451 6.456720 -0.000001 -0.000000 4.025660 -3.039730 -1.286250 12.994200 -0.242716 4.980390 -90.011200 0.035093 -72.328900 5.348090 -0.000007 -0.000001 -68.598700 33.528100 -14.889100 24.328600 0.000019 0.000005 2.714600 5.304110 -27.157900 22.291600 -0.000001 0.000005 4.480090 5.488440 -6.074770 12.994500 -0.242716 -4.980390 88.275300 5.821150 -73.464700 -5.348130 -0.000001 -0.000004 -65.296200 41.050400 -16.302600 -24.328900 0.000322 -0.000009 2.022310 6.770490 -16.681900 -22.291500 -0.000108 -0.000004 8.150360 5.430800 -3.966550 -2.192480 -6.469440 -0.000000 -175.416000 -5.970880 -3.386740 39.081100 -0.000007 -0.000012 -0.094875 0.226523 22.725500 40.985400 -0.000006 -0.000013 -0.419155 3.379810 -65.346100 11.754300 -0.000000 0.000003 -0.000020 -0.000253 -16.587500 -2.192510 6.469440 -0.000001 -179.577000 13.139600 179.615000 -39.081100 -0.002282 -0.040193 -0.014271 0.050457 19.223000 -40.985400 0.000008 0.000006 4.324490 6.390730 -65.299800 -11.754300 -0.000006 -0.000006 -0.006012 -0.070943 -19.460400
0.000000 0.000000 0.000000 0.000000 0.000000 -0.000000 -1.171640 92.424500 -2.676620 88.065900 -1.036430 4.203670 15.735700 0.000005 -0.000001 85.208000 85.019200 -84.586800 8.984550 -0.406207 -0.000000 2.165880 -0.861943 1.257570 16.377300 -0.000001 -0.000001 2.174390 -2.541240 -0.040999 6.456720 -0.000001 -0.000000 3.913800 -3.288980 -1.345810 12.994200 -0.242716 4.980390 -90.089300 0.275609 -72.050200 5.348090 -0.000007 -0.000001 -67.170200 29.751000 -16.243100 24.328600 0.000019 0.000005 1.962840 3.241950 -31.234600 22.291600 -0.000001 0.000005 5.501510 5.500800 -6.560620 12.994500 -0.242716 -4.980390 88.293400 5.745230 -73.425200 -5.348130 -0.000001 -0.000004 -65.560600 40.728900 -16.023900 -24.328900 0.000322 -0.000009 2.012900 6.751360 -16.652800 -22.291500 -0.000108 -0.000004 8.207970 5.429130 -3.909180 -2.192480 -6.469440 -0.000000 -175.424000 -5.922240 -3.407290 39.081100 -0.000007 -0.000012 -0.094959 0.227173 22.685100 40.985400 -0.000006 -0.000013 -0.407014 3.466610 -65.274100 11.754300 -0.000000 0.000003 -0.000024 -0.000298 -16.589200 -2.192510 6.469440 -0.000001 -179.571000 13.268800 179.612000 -39.081100 -0.002282 -0.040193 -0.010195 0.038788 19.214000 -40.985400 0.000008 0.000006 4.471960 6.350770 -65.291500 -11.754300 -0.000006 -0.000006 -0.005990 -0.070745 -19.452300
0.000000 0.000000 0.000000 0.000000 0.000000 -0.000000 -1.215920 92.419100 -2.778670 88.093900 -0.636884 4.221730 15.735700 0.000005 -0.000001 85.908700 85.003200 -85.253200 8.984550 -0.406207 -0.000000 2.206950 -0.744277 1.324050 16.377300 -0.000001 -0.000001 2.300460 -2.662010 -0.056336 6.456720 -0.000001 -0.000000 3.967950 -3.624020 -1.434990 12.994200 -0.242716 4.980390 -90.138600 0.423572 -71.885500 5.348090 -0.000007 -0.000001 -64.835500 25.357500 -18.812900 24.328600 0.000019 0.000005 1.643020 2.192910 -36.860000 22.291600 -0.000001 0.000005 7.643880 5.527950 -7.689260 12.994500 -0.242716 -4.980390 88.321700 5.625780 -73.359500 -5.348130 -0.000001 -0.000004 -65.772600 40.603900 -15.841800 -24.328900 0.000322 -0.000009 2.029900 6.916960 -16.407400 -22.291500 -0.000108 -0.000004 8.129910 5.432860 -4.037320 -2.192480 -6.469440 -0.000000 -175.435000 -5.710090 -3.576160 39.081100 -0.000007 -0.000012 -0.094516 0.225195 22.768200 40.985400 -0.000006 -0.000013 -0.400525 3.643590 -65.195600 11.754300 -0.000000 0.000003 -0.000022 -0.000279 -16.588500 -2.192510 6.469440 -0.000001 -179.584000 13.529300 179.540000 -39.081100 -0.002282 -0.040193 -0.013686 0.048589 19.292300 -40.985400 0.000008 0.000006 4.338640 6.241060 -65.264900 -11.754300 -0.000006 -0.000006 -0.006107 -0.071806 -19.495600
0.000000 0.000000 0.000000 0.000000 0.000000 -0.000000 -1.283820 92.433100 -2.871240 88.162300 -0.138769 4.279790 15.735700 0.000005 -0.000001 86.246500 84.990600 -85.571300 8.984550 -0.406207 -0.000000 2.235880 -0.687964 1.362480 16.377300 -0.000001 -0.000001 2.549240 -2.788570 -0.192232 6.456720 -0.000001 -0.000000 4.087770 -3.888730 -1.386880 12.994200 -0.242716 4.980390 -90.095100 0.288848 -71.771500 5.348090 -0.000007 -0.000001 -62.540300 19.950200 -22.143000 24.328600 0.000019 0.000005 1.597850 1.673420 -43.696900 22.291600 -0.000001 0.000005 10.025600 5.548140 -8.608260 12.994500 -0.242716 -4.980390 88.331200 5.593800 -73.359100 -5.348130 -0.000001 -0.000004 -65.676900 40.870800 -15.850100 -24.328900 0.000322 -0.000009 1.993850 6.920160 -16.124000 -22.291500 -0.000108 -0.000004 8.011760 5.431660 -3.995920 -2.192480 -6.469440 -0.000000 -175.453000 -5.569470 -3.607850 39.081100 -0.000007 -0.000012 -0.094430 0.226132 22.664800 40.985400 -0.000006 -0.000013 -0.376745 4.001300 -65.030600 11.754300 -0.000000 0.000003 -0.000025 -0.000311 -16.589700 -2.192510 6.469440 -0.000001 -179.609000 13.801200 179.578000 -39.081100 -0.002282 -0.040193 -0.013581 0.048386 19.257500 -40.985400 0.000008 0.000006 4.352240 5.992590 -65.216600 -11.754300 -0.000006 -0.000006 -0.006136 -0.072064 -19.506100
0.000000 0.000000 0.000000 0.000000 0.000000 -0.000000 -1.374000 92.436500 -2.973170 88.195300 0.415142 4.296150 15.735700 0.000005 -0.000001 86.056800 85.000900 -85.334700 8.984550 -0.406207 -0.000000 2.213640 -0.722024 1.456810 16.377300 -0.000001 -0.000001 2.821630 -2.883020 -0.353615 6.456720 -0.000001 -0.000000 4.257200 -4.005100 -1.479290 12.994200 -0.242716 4.980390 -89.987700 -0.037090 -71.671100 5.348090 -0.000007 -0.000001 -60.744800 13.625900 -25.943000 24.328600 0.000019 0.000005 1.105430 0.877973 -51.577900 22.291600 -0.000001 0.000005 11.791400 5.561090 -9.237510 12.994500 -0.242716 -4.980390 88.328900 5.581520 -73.302700 -5.348130 -0.000001 -0.000004 -65.535400 40.992000 -15.969200 -24.328900 0.000322 -0.000009 1.996150 7.073490 -15.811100 -22.291500 -0.000108 -0.000004 7.969500 5.431260 -3.982140 -2.192480 -6.469440 -0.000000 -175.447000 -5.263100 -3.752670 39.081100 -0.000007 -0.000012 -0.093500 0.223881 22.667100 40.985400 -0.000006 -0.000013 -0.386495 4.255600 -64.905400 11.754300 -0.000000 0.000003 -0.000023 -0.000288 -16.588800 -2.192510 6.469440 -0.000001 -179.576000 14.068600 179.548000 -39.081100 -0.002282 -0.040193 -0.014685 0.051520 19.265900 -40.985400 0.000008 0.000006 4.321860 5.717550 -65.182000 -11.754300 -0.000006 -0.000006 -0.006090 -0.071650 -19.489200
0.000000 0.000000 0.000000 0.000000 0.000000 -0.000000 -1.467570 92.446300 -3.066090 88.251500 0.855275 4.321680 15.735700 0.000005 -0.000001 85.766700 84.992900 -85.001700 8.984550 -0.406207 -0.000000 2.226670 -0.775659 1.543510 16.377300 -0.000001 -0.000001 3.016010 -2.952030 -0.470589 6.456720 -0.000001 -0.000000 4.402730 -4.029170 -1.659060 12.994200 -0.242716 4.980390 -89.836300 -0.492051 -71.599400 5.348090 -0.000007 -0.000001 -59.584000 6.639440 -30.217600 24.328600 0.000019 0.000005 0.285619 0.165266 -60.212600 22.291600 -0.000001 0.000005 13.284800 5.577130 -10.050100 12.994500 -0.242716 -4.980390 88.316800 5.587810 -73.206800 -5.348130 -0.000001 -0.000004 -65.403500 40.813100 -16.104000 -24.328900 0.000322 -0.000009 2.030790 7.222800 -15.757700 -22.291500 -0.000108 -0.000004 8.044840 5.429120 -3.908730 -2.192480 -6.469440 -0.000000 -175.449000 -5.097610 -3.828250 39.081100 -0.000007 -0.000012 -0.093346 0.224324 22.593300 40.985400 -0.000006 -0.000013 -0.399051 4.519990 -64.753500 11.754300 -0.000000 0.000003 -0.000025 -0.000312 -16.589800 -2.192510 6.469440 -0.000001 -179.557000 14.323900 179.525000 -39.081100 -0.002282 -0.040193 -0.012940 0.046526 19.266700 -40.985400 0.000008 0.000006 4.389610 5.496770 -65.150900 -11.754300 -0.000006 -0.000006 -0.006101 -0.071751 -19.493300
